<?xml version="1.0" encoding="UTF-8"?>
<svg width="184px" height="44px" viewBox="0 0 184 44" version="1.1" xmlns="http://www.w3.org/2000/svg" xmlns:xlink="http://www.w3.org/1999/xlink">
    <title>新logo</title>
    <defs>
        <linearGradient x1="100%" y1="50%" x2="0%" y2="50%" id="linearGradient-1">
            <stop stop-color="#3F4FFF" offset="0%"></stop>
            <stop stop-color="#40A0FF" offset="51.8541029%"></stop>
            <stop stop-color="#3F4FFF" offset="100%"></stop>
        </linearGradient>
        <linearGradient x1="0.706041174%" y1="49.6678558%" x2="100.41917%" y2="50.2847664%" id="linearGradient-2">
            <stop stop-color="#FF9F19" offset="0%"></stop>
            <stop stop-color="#FF4050" offset="100%"></stop>
        </linearGradient>
        <linearGradient x1="-3.10602135%" y1="72.6902897%" x2="104.67551%" y2="29.4929572%" id="linearGradient-3">
            <stop stop-color="#FF9F19" offset="0%"></stop>
            <stop stop-color="#FF4050" offset="100%"></stop>
        </linearGradient>
        <linearGradient x1="34.6073977%" y1="96.3682121%" x2="65.2853378%" y2="3.54959132%" id="linearGradient-4">
            <stop stop-color="#FF9F19" offset="0%"></stop>
            <stop stop-color="#FF4050" offset="100%"></stop>
        </linearGradient>
        <linearGradient x1="49.6235718%" y1="99.9241127%" x2="50.3728375%" y2="0.221836888%" id="linearGradient-5">
            <stop stop-color="#FF9F19" offset="0%"></stop>
            <stop stop-color="#FF4050" offset="100%"></stop>
        </linearGradient>
        <linearGradient x1="75.7656551%" y1="104.861066%" x2="31.2474098%" y2="-2.92149039%" id="linearGradient-6">
            <stop stop-color="#FF9F19" offset="0%"></stop>
            <stop stop-color="#FF4050" offset="100%"></stop>
        </linearGradient>
        <linearGradient x1="96.3474752%" y1="64.9776892%" x2="3.53312233%" y2="35.2057755%" id="linearGradient-7">
            <stop stop-color="#FF9F19" offset="0%"></stop>
            <stop stop-color="#FF3F4F" offset="100%"></stop>
        </linearGradient>
        <linearGradient x1="100%" y1="50%" x2="0%" y2="50%" id="linearGradient-8">
            <stop stop-color="#3F70FF" offset="0%"></stop>
            <stop stop-color="#0EC1FF" offset="47.2168522%"></stop>
            <stop stop-color="#3F70FF" offset="100%"></stop>
        </linearGradient>
    </defs>
    <g id="页面-1" stroke="none" stroke-width="1" fill="none" fill-rule="evenodd">
        <g id="D参与指南页" transform="translate(-360.000000, -19.000000)" fill-rule="nonzero">
            <g id="顶部导航" transform="translate(0.000000, 19.000000)">
                <g id="新logo" transform="translate(360.000000, 0.000000)">
                    <g id="文字" transform="translate(62.000000, 9.995413)" fill="#3C69F2">
                        <path d="M32.2229008,28.3437254 L32.2442865,24.32613 C33.2708016,23.0528429 34.5233945,20.8058657 34.7830784,18.7476345 L37.810687,18.7476345 C37.6243256,19.487639 37.1630049,24.7485618 32.2229008,28.3437254 Z" id="路径"></path>
                        <rect id="矩形" x="40.6045802" y="2.87717645" width="19.1847328" height="2.21448252"></rect>
                        <path d="M37.4381679,30.0045873 L37.4381679,26.7358972 C38.1229641,25.881752 39.2174418,24.5114979 39.2922012,21.4601169 C39.4596622,14.6058278 39.2922012,3.0280855 39.2922012,2.87717645 L42.255664,2.87717645 C42.255664,3.03110368 42.3124811,15.2879367 42.255664,22.2810621 C42.2227698,25.9994611 39.2922012,28.7248785 37.4381679,30.0045873 Z" id="路径"></path>
                        <polygon id="矩形" transform="translate(50.824593, 6.582206) rotate(-69.440000) translate(-50.824593, -6.582206) " points="48.7009328 5.07652876 52.3491484 5.08769245 52.9482538 7.99981308 48.7100835 8.08788344"></polygon>
                        <rect id="矩形" x="44.5160305" y="7.6752219" width="14.1557252" height="2.21448252"></rect>
                        <rect id="矩形" x="55.6916031" y="7.6752219" width="2.98015267" height="10.5187919"></rect>
                        <rect id="矩形" x="44.1435115" y="7.6752219" width="2.98015267" height="10.5187919"></rect>
                        <rect id="矩形" x="45.0748092" y="15.9795313" width="13.410687" height="2.21448252"></rect>
                        <rect id="矩形" x="46.0061069" y="12.1041869" width="10.6167939" height="2.21448252"></rect>
                        <rect id="矩形" x="34.8305344" y="3.06171666" width="2.98015267" height="3.8753444"></rect>
                        <rect id="矩形" x="34.8305344" y="10.2587848" width="2.98015267" height="4.05988461"></rect>
                        <path d="M43.7709924,28.1591852 L43.7709924,26.0493028 C45.2700889,23.9424004 45.0520385,20.7775768 45.0520385,20.7775768 L48.05326,20.7775768 C48.05326,20.7775768 48.2713104,26.0493028 43.7709924,28.1591852 Z" id="路径"></path>
                        <path d="M59.0442748,28.3437254 L59.0442748,26.2509243 C57.5300359,24.1342055 57.7632287,20.962117 57.7632287,20.962117 L54.7620071,20.962117 C54.7620071,20.962117 54.5439567,26.2509243 59.0442748,28.3437254 Z" id="路径"></path>
                        <path d="M49.9919143,18.0094736 L49.9919143,25.1461716 C49.9919143,25.5731791 49.7277511,27.0721843 48.4274809,27.600718 L48.4274809,29.8193651 L48.5214056,29.8193651 C49.3616043,29.8348029 50.1862571,29.5878051 50.884199,29.1116674 C52.6452873,27.8814082 52.8771639,25.5910955 52.8977099,25.3342938 L52.8977099,18.0094736 L49.9919143,18.0094736 Z" id="路径"></path>
                        <path d="M2.79389313,29.8200471 L2.79389313,27.5174881 C6.21531271,24.8962982 7.03380535,18.6078472 7.03380535,16.5187108 L7.03380535,3.46987445 L10.0128778,3.43079708 C10.0730611,5.20731454 10.0730611,10.5398729 10.0128778,17.3303177 C9.98880449,20.0777576 8.44209415,27.709869 2.79389313,29.8200471 Z" id="路径"></path>
                        <rect id="矩形" x="1.30381679" y="3.06171666" width="24" height="2.21448252"></rect>
                        <rect id="矩形" x="0" y="13.949589" width="27.7526718" height="2.21448252"></rect>
                        <path d="M17.6946565,29.6355068 L20.8610687,29.6355068 C20.8155307,19.7369352 20.8155307,10.8456604 20.8610687,4.90711876 L17.7007282,4.96424903 C17.6976924,5.15668785 17.6946565,19.8391683 17.6946565,29.6355068 Z" id="路径"></path>
                        <polygon id="矩形" transform="translate(77.369257, 3.157744) rotate(-34.940000) translate(-77.369257, -3.157744) " points="75.7817047 0.414812749 78.9329454 0.428510949 78.9568085 5.90067609 75.8055678 5.88697789"></polygon>
                        <rect id="矩形" x="65.1908397" y="6.56798065" width="21.978626" height="2.21448252"></rect>
                        <path d="M71.7867037,25.2065418 L70.0335878,22.9835907 C80.5826142,17.9495264 87.0936388,6.68561307 87.1694656,6.56798065 L89.7120579,8.04430232 C89.381453,8.54801038 83.039403,20.7395261 71.7867037,25.2065418 Z" id="路径"></path>
                        <path d="M92.1984733,25.5946584 C78.3084691,27.4030046 74.4600905,24.6798121 72.2458301,23.3136416 C71.4561076,22.8257236 70.8364791,22.4414882 70.0771306,22.4384387 C68.485536,22.4384387 65.5483757,24.3382695 64.4458015,24.9512165 L64.4458015,28.4703253 C67.3981488,26.1527147 68.6981536,25.3872933 69.0474539,25.2073735 C69.6432794,24.8981521 70.3486912,24.885747 70.9549375,25.1738291 C72.8624211,26.3539809 74.9430362,28.5282656 83.3566185,28.5282656 C86.3149483,28.5078169 89.2686875,28.2908291 92.1984733,27.8787247 L92.1984733,25.5946584 Z" id="路径"></path>
                        <rect id="矩形" x="95.551145" y="2.87717645" width="26.0763359" height="2.02994231"></rect>
                        <polygon id="矩形" transform="translate(107.403282, 5.645280) rotate(-60.650000) translate(-107.403282, -5.645280) " points="105.693866 4.11136659 108.9784 4.17532992 109.112697 7.1791926 106.048 7.17174576"></polygon>
                        <rect id="矩形" x="98.1587786" y="6.56798065" width="2.60763359" height="11.2569528"></rect>
                        <rect id="矩形" x="98.1587786" y="6.38344044" width="20.6748092" height="1.66086189"></rect>
                        <rect id="矩形" x="98.1587786" y="9.70516421" width="20.6748092" height="1.66086189"></rect>
                        <rect id="矩形" x="98.1587786" y="13.026888" width="20.6748092" height="1.66086189"></rect>
                        <rect id="矩形" x="98.1587786" y="16.1640715" width="20.6748092" height="1.66086189"></rect>
                        <rect id="矩形" x="116.225954" y="6.56798065" width="2.60763359" height="11.2569528"></rect>
                        <path d="M96.1099237,23.3611397 L96.1099237,21.4460244 C99.4355577,20.5859957 101.385275,19.8057635 102.680079,19.0137096 C103.492108,18.5304114 104.181499,17.8714137 104.695888,17.0867726 L107.471756,17.8249334 C106.778969,18.7973173 105.517841,20.3055469 104.488599,20.9258696 C102.328589,22.2469445 100.360847,22.6754811 96.1099237,23.3611397 Z" id="路径"></path>
                        <rect id="矩形" x="103.374046" y="19.4857953" width="12.6656489" height="1.66086189"></rect>
                        <path d="M116.039695,19.4857953 C115.991072,19.5513529 112.277784,26.7509752 96.2961832,27.7373182 L96.2961832,29.6355068 C113.219844,29.2362019 118.41941,21.0206505 118.647328,20.6958427 L116.039695,19.4857953 Z" id="路径"></path>
                        <path d="M121.993906,27.7541686 C109.022497,26.3055983 103.871631,20.9095225 103.825925,20.8644426 L101.353986,22.2532536 C101.597752,22.4666322 107.450205,28.4153418 122,29.6355068 L121.993906,27.7541686 Z" id="路径"></path>
                    </g>
                    <g id="图形">
                        <path d="M51.963128,20.8266667 C51.963128,21.5692827 51.4170719,22.278481 50.4162615,22.9356962 C46.7957861,20.5556118 37.2301459,18.851308 25.9947326,18.851308 C14.7593193,18.851308 5.1954349,20.5518987 1.57495948,22.9356962 C0.574149109,22.278481 0.0280929227,21.5674262 0.0280929227,20.8266667 C0.0280929227,17.4087764 11.6532955,14.6388186 25.9947326,14.6388186 C40.3361696,14.6388186 51.963128,17.4087764 51.963128,20.8266667 Z" id="路径" fill="url(#linearGradient-1)"></path>
                        <path d="M15.8076259,28.9323207 C14.1619239,28.9312976 12.5246276,28.699412 10.9443165,28.2435443 C8.31199445,27.4980105 5.88260167,26.1737227 3.83640288,24.3689451 L8.23021583,19.8074262 L8.21338129,19.7925738 C9.59092024,20.943033 11.2055717,21.7801354 12.9438849,22.2450633 C16.621295,23.2234599 20.3623022,22.2970464 24.0621583,19.4918143 C30.8876259,14.3194937 37.0771223,14.6648101 41.0669065,15.8455696 C43.7058211,16.6217189 46.1350696,17.9770187 48.1748201,19.8111392 L43.7379856,24.3318143 L43.7548201,24.3466667 C42.3802509,23.1731035 40.7638098,22.311988 39.018705,21.8236287 C35.3506475,20.8081013 31.6189928,21.7103797 27.9284892,24.5081857 C23.4692086,27.8852321 19.2848921,28.9323207 15.8076259,28.9323207 Z" id="路径" fill="url(#linearGradient-2)"></path>
                        <path d="M11.5877698,35.409789 C10.3791796,35.4198846 9.17326475,35.2953359 7.99266187,35.038481 L9.50028777,28.9118987 L9.47784173,28.9118987 C11.2504826,29.2253999 13.0708186,29.1493531 14.8106475,28.6891139 C18.4880576,27.7107173 21.2601439,25.0521519 23.0520863,20.7876793 C26.3572662,12.9196624 31.8864748,10.1385654 35.9417266,9.18987342 C38.6163715,8.55328761 41.4009781,8.52156333 44.0896403,9.09704641 L42.5258993,15.2236287 L42.5483453,15.2236287 C40.7662773,14.8896255 38.9322103,14.9460172 37.1743885,15.3888608 C33.4857554,16.3301266 30.7099281,18.9627004 28.9217266,23.2178903 C25.6240288,31.0691983 20.1303597,33.8911392 16.105036,34.8751055 C14.6264768,35.2332815 13.1097274,35.4128107 11.5877698,35.409789 Z" id="路径" fill="url(#linearGradient-3)"></path>
                        <path d="M16.9673381,42.2307173 L15.1847482,36.1746835 L15.1623022,36.1746835 C16.8555101,35.5662652 18.393663,34.5966488 19.6683453,33.3341772 C22.36,30.662616 23.422446,26.9848101 22.8257554,22.4028692 C21.7240288,13.9500422 25.1115108,8.79628692 28.1454676,5.96320675 C30.1432814,4.09085635 32.5390526,2.68747187 35.1561151,1.85654008 L36.8825899,7.9292827 L36.9031655,7.9292827 C35.1928026,8.52458883 33.6339428,9.48320802 32.3353957,10.7382278 C29.6194245,13.3670886 28.5345324,17.0281857 29.131223,21.5989873 C30.2292086,30.0351055 26.8866187,35.2055696 23.9031655,38.0553586 C21.936233,39.9461454 19.5656937,41.3732069 16.9673381,42.2307173 L16.9673381,42.2307173 Z" id="路径" fill="url(#linearGradient-4)"></path>
                        <path d="M28.358705,44 L23.7647482,39.6389873 L23.7479137,39.6556962 C24.9080406,38.2891161 25.7515624,36.6862837 26.2188489,34.9605063 C27.2046043,31.3105485 26.271223,27.5974684 23.4467626,23.9252321 C18.2355396,17.1507173 18.5722302,11.0092827 19.7730935,7.05485232 C20.555613,4.43586107 21.921043,2.02485896 23.7684892,0 L28.321295,4.40371308 L28.3381295,4.38700422 C27.1537916,5.75350782 26.2860415,7.36134279 25.7961151,9.09704641 C24.7710791,12.7377215 25.6801439,16.441519 28.4989928,20.1044726 C33.7008633,26.8659916 33.4165468,32.9981435 32.262446,36.9507173 C31.5110678,39.5616311 30.1767983,41.9710233 28.358705,44 Z" id="路径" fill="url(#linearGradient-5)"></path>
                        <path d="M39.1159712,39.878481 L32.9433094,38.3821097 L32.9433094,38.4062447 C33.2591412,36.6462144 33.1825238,34.8388692 32.7188489,33.1113924 C31.7330935,29.4614346 29.0545324,26.7100422 24.7579856,24.9314768 C16.8326619,21.6509705 14.0306475,16.1648945 13.0748201,12.1380591 C12.4317879,9.48452848 12.3966324,6.72162937 12.9719424,4.052827 L19.1446043,5.60675105 L19.1446043,5.58447257 C18.8069715,7.35252856 18.8637959,9.17254178 19.3110791,10.9164557 C20.257554,14.5775527 22.9117986,17.3345148 27.1971223,19.1075105 C35.107482,22.3805907 37.9506475,27.8332489 38.9438849,31.8303797 C39.6097835,34.4661687 39.6686029,37.2170248 39.1159712,39.878481 Z" id="路径" fill="url(#linearGradient-6)"></path>
                        <path d="M40.2607194,32.7642194 C39.6470382,31.0834416 38.6702362,29.5563048 37.3988489,28.2899578 C34.7071942,25.6202532 30.9998561,24.5638819 26.3834532,25.1561181 C25.3217214,25.2950035 24.2520621,25.3656991 23.1811511,25.3677637 C16.5371223,25.3677637 12.2985612,22.4901266 9.82014388,19.8761181 C7.93245482,17.8931935 6.51668138,15.5154479 5.67697842,12.9178059 L11.7972662,11.2060759 L11.7972662,11.1837975 C12.3970275,12.8823772 13.3635587,14.4303356 14.6292086,15.7193249 C17.2741007,18.4187342 20.9627338,19.4936709 25.5679137,18.8995781 C34.0693525,17.8079325 39.2768345,21.1274262 42.1499281,24.0867511 C44.0549359,26.0390002 45.4927307,28.3918432 46.3566906,30.9708017 L40.2532374,32.7400844 L40.2607194,32.7642194 Z" id="路径" fill="url(#linearGradient-7)"></path>
                        <path d="M52,20.8285232 C52,24.2464135 40.3747974,27.0182278 26.0333603,27.0182278 C11.6919233,27.0182278 0.0754997299,24.2464135 0.0754997299,20.8285232 L0,25.0447257 C0,28.462616 11.6252026,31.2344304 25.9666397,31.2344304 C40.3080767,31.2344304 51.9245003,28.462616 51.9245003,25.0447257 L52,20.8285232 Z" id="路径" fill="url(#linearGradient-8)"></path>
                    </g>
                </g>
            </g>
        </g>
    </g>
</svg>